<?xml version="1.0" encoding="UTF-8" standalone="no"?>
<!DOCTYPE svg PUBLIC "-//W3C//DTD SVG 1.1//EN"
 "http://www.w3.org/Graphics/SVG/1.1/DTD/svg11.dtd">
<!-- Generated by graphviz version 2.38.0 (20140413.2041)
 -->
<!-- Title: VM Pages: 1 -->
<svg width="734pt" height="219pt"
 viewBox="0.00 0.00 734.00 219.41" xmlns="http://www.w3.org/2000/svg" xmlns:xlink="http://www.w3.org/1999/xlink">
<g id="graph0" class="graph" transform="scale(1 1) rotate(0) translate(4 215.41)">
<title>VM</title>
<polygon fill="white" stroke="none" points="-4,4 -4,-215.41 730,-215.41 730,4 -4,4"/>
<!-- プログラム言語\n(C, Java, Ruby, JS, Lua) -->
<g id="node1" class="node"><title>プログラム言語\n(C, Java, Ruby, JS, Lua)</title>
<polygon fill="none" stroke="black" points="152,-88.4105 0,-88.4105 0,-50.4105 152,-50.4105 152,-88.4105"/>
<text text-anchor="middle" x="76" y="-73.2105" font-family="Times,serif" font-size="14.00">プログラム言語</text>
<text text-anchor="middle" x="76" y="-58.2105" font-family="Times,serif" font-size="14.00">(C, Java, Ruby, JS, Lua)</text>
</g>
<!-- VM\n(JVM, YARV, LuaVM) -->
<g id="node2" class="node"><title>VM\n(JVM, YARV, LuaVM)</title>
<polygon fill="none" stroke="black" points="367,-159.41 217,-159.41 217,-121.41 367,-121.41 367,-159.41"/>
<text text-anchor="middle" x="292" y="-144.21" font-family="Times,serif" font-size="14.00">VM</text>
<text text-anchor="middle" x="292" y="-129.21" font-family="Times,serif" font-size="14.00">(JVM, YARV, LuaVM)</text>
</g>
<!-- プログラム言語\n(C, Java, Ruby, JS, Lua)&#45;&gt;VM\n(JVM, YARV, LuaVM) -->
<g id="edge1" class="edge"><title>プログラム言語\n(C, Java, Ruby, JS, Lua)&#45;&gt;VM\n(JVM, YARV, LuaVM)</title>
<path fill="none" stroke="green" d="M90.4532,-88.7283C106.545,-109.959 135.657,-142.851 170,-156.41 186.962,-163.108 206.195,-163.494 224.254,-161.055"/>
<polygon fill="green" stroke="green" points="224.844,-164.505 234.145,-159.431 223.71,-157.597 224.844,-164.505"/>
<text text-anchor="middle" x="184.5" y="-165.21" font-family="Times,serif" font-size="14.00">javac</text>
</g>
<!-- プログラム言語\n(C, Java, Ruby, JS, Lua)&#45;&gt;VM\n(JVM, YARV, LuaVM) -->
<g id="edge2" class="edge"><title>プログラム言語\n(C, Java, Ruby, JS, Lua)&#45;&gt;VM\n(JVM, YARV, LuaVM)</title>
<path fill="none" stroke="red" d="M107.356,-88.4365C125.032,-98.7293 148.091,-110.848 170,-118.41 181.705,-122.451 194.317,-125.79 206.824,-128.538"/>
<polygon fill="red" stroke="red" points="206.309,-132.006 216.812,-130.617 207.735,-125.152 206.309,-132.006"/>
<text text-anchor="middle" x="184.5" y="-129.21" font-family="Times,serif" font-size="14.00">ruby</text>
</g>
<!-- プログラム言語\n(C, Java, Ruby, JS, Lua)&#45;&gt;VM\n(JVM, YARV, LuaVM) -->
<g id="edge3" class="edge"><title>プログラム言語\n(C, Java, Ruby, JS, Lua)&#45;&gt;VM\n(JVM, YARV, LuaVM)</title>
<path fill="none" stroke="red" d="M152.13,-85.6525C167.77,-89.6546 184.041,-94.2836 199,-99.4105 213.516,-104.385 228.889,-110.767 242.828,-117.006"/>
<polygon fill="red" stroke="red" points="241.669,-120.324 252.22,-121.284 244.57,-113.954 241.669,-120.324"/>
<text text-anchor="middle" x="184.5" y="-103.21" font-family="Times,serif" font-size="14.00">lua</text>
</g>
<!-- マシンコード\n(x86, ARM) -->
<g id="node3" class="node"><title>マシンコード\n(x86, ARM)</title>
<polygon fill="none" stroke="black" points="573,-104.41 475,-104.41 475,-66.4105 573,-66.4105 573,-104.41"/>
<text text-anchor="middle" x="524" y="-89.2105" font-family="Times,serif" font-size="14.00">マシンコード</text>
<text text-anchor="middle" x="524" y="-74.2105" font-family="Times,serif" font-size="14.00">(x86, ARM)</text>
</g>
<!-- プログラム言語\n(C, Java, Ruby, JS, Lua)&#45;&gt;マシンコード\n(x86, ARM) -->
<g id="edge9" class="edge"><title>プログラム言語\n(C, Java, Ruby, JS, Lua)&#45;&gt;マシンコード\n(x86, ARM)</title>
<path fill="none" stroke="green" d="M152.153,-72.1066C240.18,-75.2645 384.145,-80.4291 464.35,-83.3065"/>
<polygon fill="green" stroke="green" points="464.638,-86.8189 474.757,-83.6798 464.889,-79.8234 464.638,-86.8189"/>
<text text-anchor="middle" x="292" y="-83.2105" font-family="Times,serif" font-size="14.00">gcc/clang</text>
</g>
<!-- プログラム言語\n(C, Java, Ruby, JS, Lua)&#45;&gt;マシンコード\n(x86, ARM) -->
<g id="edge10" class="edge"><title>プログラム言語\n(C, Java, Ruby, JS, Lua)&#45;&gt;マシンコード\n(x86, ARM)</title>
<path fill="none" stroke="red" d="M152.096,-60.5097C173.071,-58.4026 195.897,-56.463 217,-55.4105 283.584,-52.0896 300.634,-49.0871 367,-55.4105 399.664,-58.5228 435.661,-65.2217 464.838,-71.5013"/>
<polygon fill="red" stroke="red" points="464.339,-74.9751 474.857,-73.6985 465.839,-68.1376 464.339,-74.9751"/>
<text text-anchor="middle" x="292" y="-59.2105" font-family="Times,serif" font-size="14.00">v8</text>
</g>
<!-- プログラム言語\n(C, Java, Ruby, JS, Lua)&#45;&gt;マシンコード\n(x86, ARM) -->
<g id="edge11" class="edge"><title>プログラム言語\n(C, Java, Ruby, JS, Lua)&#45;&gt;マシンコード\n(x86, ARM)</title>
<path fill="none" stroke="green" d="M135.591,-50.3137C160.411,-43.1725 189.826,-35.9408 217,-32.4105 283.111,-23.8218 300.771,-24.7861 367,-32.4105 407.805,-37.108 418.282,-39.6994 457,-53.4105 463.932,-55.8653 471.095,-58.841 478.033,-61.9777"/>
<polygon fill="green" stroke="green" points="476.769,-65.2506 487.31,-66.321 479.737,-58.911 476.769,-65.2506"/>
<text text-anchor="middle" x="292" y="-36.2105" font-family="Times,serif" font-size="14.00">AOT</text>
</g>
<!-- 実行結果\nHello, world! -->
<g id="node4" class="node"><title>実行結果\nHello, world!</title>
<polygon fill="none" stroke="black" points="726,-160.41 636,-160.41 636,-122.41 726,-122.41 726,-160.41"/>
<text text-anchor="middle" x="681" y="-145.21" font-family="Times,serif" font-size="14.00">実行結果</text>
<text text-anchor="middle" x="681" y="-130.21" font-family="Times,serif" font-size="14.00">Hello, world!</text>
</g>
<!-- プログラム言語\n(C, Java, Ruby, JS, Lua)&#45;&gt;実行結果\nHello, world! -->
<g id="edge12" class="edge"><title>プログラム言語\n(C, Java, Ruby, JS, Lua)&#45;&gt;実行結果\nHello, world!</title>
<path fill="none" stroke="green" d="M119.015,-50.386C134.78,-43.7433 152.998,-36.647 170,-31.4105 292.094,6.19314 331.169,6.66803 457,-15.4105 511.006,-24.8864 525.053,-30.8123 573,-57.4105 601.989,-73.4915 631.357,-97.1918 651.973,-115.321"/>
<polygon fill="green" stroke="green" points="649.907,-118.169 659.699,-122.216 654.568,-112.946 649.907,-118.169"/>
<text text-anchor="middle" x="421" y="-19.2105" font-family="Times,serif" font-size="14.00">BASIC</text>
</g>
<!-- VM\n(JVM, YARV, LuaVM)&#45;&gt;マシンコード\n(x86, ARM) -->
<g id="edge4" class="edge"><title>VM\n(JVM, YARV, LuaVM)&#45;&gt;マシンコード\n(x86, ARM)</title>
<path fill="none" stroke="red" d="M367.182,-135.691C395.712,-132.526 428.308,-127.239 457,-118.41 465.097,-115.919 473.414,-112.513 481.298,-108.831"/>
<polygon fill="red" stroke="red" points="482.87,-111.959 490.314,-104.42 479.794,-105.671 482.87,-111.959"/>
<text text-anchor="middle" x="421" y="-136.21" font-family="Times,serif" font-size="14.00">java(hotspot)</text>
</g>
<!-- VM\n(JVM, YARV, LuaVM)&#45;&gt;マシンコード\n(x86, ARM) -->
<g id="edge5" class="edge"><title>VM\n(JVM, YARV, LuaVM)&#45;&gt;マシンコード\n(x86, ARM)</title>
<path fill="none" stroke="red" d="M328.736,-121.294C345.385,-113.23 365.736,-104.539 385,-99.4105 410.668,-92.5775 439.837,-89.0337 464.724,-87.2132"/>
<polygon fill="red" stroke="red" points="464.997,-90.7028 474.746,-86.5547 464.539,-83.7179 464.997,-90.7028"/>
<text text-anchor="middle" x="421" y="-103.21" font-family="Times,serif" font-size="14.00">luajit</text>
</g>
<!-- VM\n(JVM, YARV, LuaVM)&#45;&gt;実行結果\nHello, world! -->
<g id="edge6" class="edge"><title>VM\n(JVM, YARV, LuaVM)&#45;&gt;実行結果\nHello, world!</title>
<path fill="none" stroke="red" d="M325.033,-159.55C342.201,-168.806 364.076,-179.05 385,-184.41 465.97,-205.155 489.543,-194.033 573,-189.41 593.092,-188.298 599.156,-191.471 618,-184.41 629.29,-180.18 640.476,-173.433 650.173,-166.526"/>
<polygon fill="red" stroke="red" points="652.359,-169.263 658.277,-160.475 648.171,-163.654 652.359,-169.263"/>
<text text-anchor="middle" x="524" y="-200.21" font-family="Times,serif" font-size="14.00">ruby</text>
</g>
<!-- VM\n(JVM, YARV, LuaVM)&#45;&gt;実行結果\nHello, world! -->
<g id="edge7" class="edge"><title>VM\n(JVM, YARV, LuaVM)&#45;&gt;実行結果\nHello, world!</title>
<path fill="none" stroke="red" d="M367.246,-150.056C373.245,-150.601 379.219,-151.066 385,-151.41 468.967,-156.412 566.538,-150.889 625.747,-146.281"/>
<polygon fill="red" stroke="red" points="626.296,-149.748 635.985,-145.463 625.739,-142.77 626.296,-149.748"/>
<text text-anchor="middle" x="524" y="-156.21" font-family="Times,serif" font-size="14.00">java</text>
</g>
<!-- マシンコード\n(x86, ARM)&#45;&gt;実行結果\nHello, world! -->
<g id="edge8" class="edge"><title>マシンコード\n(x86, ARM)&#45;&gt;実行結果\nHello, world!</title>
<path fill="none" stroke="red" d="M573.193,-102.822C589.908,-108.861 608.756,-115.671 625.914,-121.87"/>
<polygon fill="red" stroke="red" points="625.198,-125.332 635.792,-125.439 627.577,-118.749 625.198,-125.332"/>
<text text-anchor="middle" x="604.5" y="-122.21" font-family="Times,serif" font-size="14.00">CPU</text>
</g>
</g>
</svg>
